<svg xmlns="http://www.w3.org/2000/svg" xmlns:xlink="http://www.w3.org/1999/xlink" width="34" height="34" viewBox="0 0 34 34">
  <defs>
    <polygon id="page-1-copy-4@1x-a" points="0 .208 33.793 .208 33.793 34 0 34"/>
  </defs>
  <g fill="none" fill-rule="evenodd">
    <mask id="page-1-copy-4@1x-b" fill="#fff">
      <use xlink:href="#page-1-copy-4@1x-a"/>
    </mask>
    <path fill="#FEFEFE" d="M31.2916722,0.2074 L2.49472371,0.2074 C1.11789897,0.2074 0.000105154639,1.29820412 0.000105154639,2.64313196 L0.000105154639,31.5617093 C0.000105154639,32.9073381 1.11789897,33.9998948 2.49472371,33.9998948 L31.2916722,33.9998948 C32.669899,33.9998948 33.793301,32.9073381 33.793301,31.5617093 L33.793301,2.64313196 C33.793301,1.29820412 32.669899,0.2074 31.2916722,0.2074" mask="url(#page-1-copy-4@1x-b)"/>
    <path fill="#ED2524" d="M12 26.9993319C12 28.1040588 11.1045025 29 10.0005012 29 8.89549745 29 8 28.1040588 8 26.9993319 8 25.8956071 8.89549745 25 10.0005012 25 11.1045025 25 12 25.8956071 12 26.9993319M22 26.9993319C22 28.1040588 21.1048017 29 19.9991649 29 18.8958664 29 18 28.1040588 18 26.9993319 18 25.8956071 18.8958664 25 19.9991649 25 21.1048017 25 22 25.8956071 22 26.9993319M23.5391242 12.8638945C22.0655523 12.0654193 21.0076395 11.4669904 21.0076395 10.4941159 21.0076395 9.63066841 21.8499335 8.04431877 23.5812566 8.0432929 24.2705993 8.04260898 25.1670635 8.15408774 25.3189526 8.1999103L26.6073543 5.38387468C24.4171776 4.85588937 23.4297215 5.02618515 23.4297215 5.02618515 20.0325754 5.14894858 17.0818911 7.96908771 17.0818911 11.0932287 17.0818911 13.2879241 18.8376438 14.5849761 20.6978425 15.5578506 22.2992278 16.3559838 23.0480516 16.9804017 23.0480516 17.9283131 23.0480516 19.1173059 21.9805794 19.7608735 20.714129 19.8764558L20.6125155 19.8856887 10.4210771 19.9578421 11.013055 18.0432115 16.7271292 18.0432115 17.7698176 15.504163 10.1806745 15.504163C9.1910942 15.504163 8.78145396 15.8303922 8.60513517 16.1555956L7.03490659 21.5469274C6.86531483 22.1303102 7.33018746 22.7530182 8.07122205 22.9527225 8.13353551 22.9691366 8.19372466 22.9746079 8.25533002 22.9845247L8.25178948 22.9982031 8.40474072 22.9958094C8.4868812 23.0023066 8.56937573 23.0005968 8.64797568 22.9951255L20.609329 22.9691366 20.714129 22.9633233C24.2217399 22.7136929 27 20.7877776 27 17.3038953 27 15.3082202 25.657074 13.9366211 23.5391242 12.8638945"/>
  </g>
</svg>
